<svg width="28" height="25" viewBox="0 0 28 25" xmlns="http://www.w3.org/2000/svg">
<path fill-rule="evenodd" clip-rule="evenodd" d="M7.52895 10.4819C2.18872 4.95012 3.80876 1.18906 5.28631 0L15.791 10.1363L15.7856 10.1422C17.2192 11.5002 18.6076 12.8614 19.8598 14.1585C25.2 19.6902 23.58 23.4513 22.1024 24.6403L11.5977 14.5041L11.6031 14.4981C10.1695 13.1401 8.78115 11.779 7.52895 10.4819ZM1.57662 11.0826C0.0533664 12.2127 -1.71361 15.9072 3.40453 21.6445C3.53824 21.7944 3.67361 21.9451 3.81051 22.0966L7.7205 17.4967L1.57662 11.0826ZM23.6397 2.40719C28.7579 8.14451 26.9909 11.839 25.4676 12.9691L19.3238 6.55501L23.2338 1.95506C23.3707 2.10656 23.506 2.25731 23.6397 2.40719Z" fill="white"/>
</svg>
