<svg width="14" height="14" viewBox="0 0 14 14" fill="none" xmlns="http://www.w3.org/2000/svg">
<path d="M1.74986 3.50033H2.91653M2.91653 3.50033H12.2499M2.91653 3.50033V11.667C2.91653 11.9764 3.03945 12.2732 3.25824 12.4919C3.47703 12.7107 3.77378 12.8337 4.0832 12.8337H9.91653C10.2259 12.8337 10.5227 12.7107 10.7415 12.4919C10.9603 12.2732 11.0832 11.9764 11.0832 11.667V3.50033M4.66653 3.50033V2.33366C4.66653 2.02424 4.78945 1.72749 5.00824 1.5087C5.22703 1.28991 5.52378 1.16699 5.8332 1.16699H8.16653C8.47595 1.16699 8.77269 1.28991 8.99149 1.5087C9.21028 1.72749 9.3332 2.02424 9.3332 2.33366V3.50033M5.8332 6.41699V9.91699M8.16653 6.41699V9.91699" stroke="#757575" stroke-linecap="round" stroke-linejoin="round"/>
</svg>
